<?xml version="1.0" encoding="UTF-8"?>
<svg xmlns="http://www.w3.org/2000/svg" onmouseup="{ if(window.parent.document.onmouseup) window.parent.document.onmouseup(arguments[0]);}" fill="none" viewBox="0 0 36 36" height="36" width="36"><path data-cppathid="10000" fill="#0978BE" d="M20.4538 8L5.08381 23.372C4.96625 23.4891 4.87995 23.6339 4.83281 23.793L2.05481 33.1C1.94081 33.476 2.51381 33.95 2.83781 33.95C2.85863 33.9501 2.8794 33.9481 2.89981 33.944C3.17581 33.88 10.7668 31.6 12.2108 31.166C12.3678 31.1186 12.5105 31.0326 12.6258 30.916L27.9998 15.544L20.4538 8Z"/><path data-cppathid="10001" fill="#0978BE" d="M33.567 8.20014L27.8 2.43214C27.6862 2.31901 27.551 2.22957 27.4024 2.16898C27.2537 2.10839 27.0946 2.07786 26.934 2.07914H26.9C26.5505 2.09167 26.2189 2.23726 25.973 2.48614L21.873 6.58614L29.416 14.1291L33.516 10.0291C33.7524 9.79328 33.8946 9.47934 33.916 9.14614C33.9284 8.97272 33.9037 8.79865 33.8435 8.63553C33.7833 8.47242 33.6891 8.32399 33.567 8.20014Z"/></svg>